<?xml version="1.0" encoding="UTF-8" standalone="no"?>
<svg
   xmlns:dc="http://purl.org/dc/elements/1.1/"
   xmlns:cc="http://creativecommons.org/ns#"
   xmlns:rdf="http://www.w3.org/1999/02/22-rdf-syntax-ns#"
   xmlns:svg="http://www.w3.org/2000/svg"
   xmlns="http://www.w3.org/2000/svg"
   xmlns:sodipodi="http://sodipodi.sourceforge.net/DTD/sodipodi-0.dtd"
   xmlns:inkscape="http://www.inkscape.org/namespaces/inkscape"
   inkscape:version="1.0 (4035a4fb49, 2020-05-01)"
   sodipodi:docname="Logotipo sello definitivo ink.svg"
   version="1.1"
   viewBox="0 0 1230.34153 1116.03792"
   data-name="Capa 1"
   id="Capa_1">
  <metadata
     id="metadata25">
    <rdf:RDF>
      <cc:Work
         rdf:about="">
        <dc:format>image/svg+xml</dc:format>
        <dc:type
           rdf:resource="http://purl.org/dc/dcmitype/StillImage" />
        <dc:title></dc:title>
      </cc:Work>
    </rdf:RDF>
  </metadata>
  <sodipodi:namedview
     inkscape:current-layer="Capa_1"
     inkscape:window-maximized="1"
     inkscape:window-y="-8"
     inkscape:window-x="-8"
     inkscape:cy="558.01898"
     inkscape:cx="615.17078"
     inkscape:zoom="0.48206245"
     showgrid="false"
     id="namedview23"
     inkscape:window-height="705"
     inkscape:window-width="1366"
     inkscape:pageshadow="2"
     inkscape:pageopacity="0"
     guidetolerance="10"
     gridtolerance="10"
     objecttolerance="10"
     borderopacity="1"
     bordercolor="#666666"
     pagecolor="#ffffff" />
  <defs
     id="defs4">
    <style
       id="style2">
      .cls-1 {
        fill: #930042;
      }

      .cls-2 {
        fill: none;
        stroke: #930042;
        stroke-miterlimit: 10;
        stroke-width: 20px;
      }
    </style>
  </defs>
  <path
     id="path6"
     transform="translate(-89.98677 -30.96777)"
     d="M397.86133,746.73047a268.812,268.812,0,0,1-110.66553-23.958A334.47818,334.47818,0,0,1,119.7124,280.39258,416.05436,416.05436,0,0,1,508.47607,35.59131C560.72931,36.811,612.18018,46.61318,660.05145,68.218,664,70,667.52185,76.41481,665.22394,81.5127l-.00556.01238C662.98059,86.48966,662,91,652.17432,86.604,457.12034-.66285,226.23761,92.73462,137.9458,288.61133,66.68848,446.69678,137.32861,633.28125,295.41455,704.54c125.46387,56.55176,273.54395.48828,330.09668-124.97363a197.66561,197.66561,0,0,0-98.977-261.43311,156.13192,156.13192,0,0,0-206.50049,78.18018,123.04717,123.04717,0,0,0,61.54248,162.55664,96.43833,96.43833,0,0,0,127.39942-48.23389C517.90088,490.835,538.457,493.8999,527.209,518.855a116.45771,116.45771,0,0,1-153.85156,58.24854c-71.83789-32.38184-103.938-117.1709-71.55713-189.00879A176.13281,176.13281,0,0,1,534.75293,299.8999a217.66541,217.66541,0,0,1,108.9917,287.88526,270.267,270.267,0,0,1-245.8833,158.94531Z"
     class="cls-1" />
  <path
     id="path8"
     transform="translate(-89.98677 -30.96777)"
     d="M745,99"
     class="cls-2" />
  <path
     id="path10"
     transform="translate(-89.98677 -30.96777)"
     d="M1044,101"
     class="cls-2" />
  <path
     id="path12"
     transform="translate(-89.98677 -30.96777)"
     d="M925.65527,168.70459c-44.84863,0-89.02148-6.92578-134.03418-20.94531-48.79882-15.19922-87.97851-35.4043-119.46045-51.63965C663.5343,91.67093,666.12627,92.72279,651,86c-9-4-9.27081-9.91358-7.072-14.8387v0C646.23169,66.00114,647.5722,62.7589,653,65c7.45422,3.07779,19.59412,8.84047,28.32764,13.34424,61.68994,31.814,154.91748,79.88965,281.79345,68.69433,146.47034-12.92514,282.68567-81.07226,342.28089-114.77309a9.99548,9.99548,0,0,1,13.56885,3.68433l.002.00322a9.99275,9.99275,0,0,1-3.71033,13.71727,1057.93242,1057.93242,0,0,1-134.5603,64.00792c-75.11524,29.34717-147.72852,47.27393-215.82324,53.28321Q945.14746,168.70239,925.65527,168.70459Z"
     class="cls-1" />
  <path
     id="path14"
     transform="translate(-89.98677 -30.96777)"
     d="M876,136"
     class="cls-2" />
  <path
     id="path16"
     transform="translate(-89.98677 -30.96777)"
     d="M1498,387"
     class="cls-2" />
  <path
     id="path18"
     transform="translate(-89.98677 -30.96777)"
     d="M679.76328,85.93836"
     class="cls-2" />
  <path
     id="path20"
     transform="translate(-89.98677 -30.96777)"
     d="M951.00718,1146.99976a10.0002,10.0002,0,0,1-10.33987-9.65456C934.52908,955.05533,930.26812,770.33189,928.001,588.124c-2.34447-188.31766-3.513-340.57066-2.08637-513.20717A10.00132,10.00132,0,0,1,936.00285,65h.00082a10.00257,10.00257,0,0,1,9.91091,10.087C944.488,247.55,945.65649,399.688,947.999,587.876c2.26622,182.06814,6.52347,366.651,12.65706,548.802a9.98981,9.98981,0,0,1-9.64888,10.32182Z"
     class="cls-1" />
</svg>
